HIERARCHY
ROOT Hips
{
 OFFSET 0.000000 0.000000 0.000000
 CHANNELS 6 Xposition Yposition Zposition Yrotation Xrotation Zrotation
 JOINT Chest
 {
  OFFSET 0.000000 9.585900 0.002600
  CHANNELS 3 Yrotation Xrotation Zrotation
  JOINT Chest2
  {
   OFFSET 0.000000 9.601200 -0.005300
   CHANNELS 3 Yrotation Xrotation Zrotation
   JOINT Chest3
   {
    OFFSET 0.000000 9.561800 0.000000
    CHANNELS 3 Yrotation Xrotation Zrotation
    JOINT Chest4
    {
     OFFSET 0.000000 9.552100 0.000000
     CHANNELS 3 Yrotation Xrotation Zrotation
     JOINT Neck
     {
      OFFSET 0.000000 14.453000 0.000000
      CHANNELS 3 Yrotation Xrotation Zrotation
      JOINT Head
      {
       OFFSET 0.000000 8.936500 -0.011300
       CHANNELS 3 Yrotation Xrotation Zrotation
       End Site
       {
        OFFSET 0.000000 17.073600 -0.006000
       }
      }
     }
     JOINT RightCollar
     {
      OFFSET -2.921100 9.558500 0.000000
      CHANNELS 3 Yrotation Xrotation Zrotation
      JOINT RightShoulder
      {
       OFFSET -13.519700 0.000000 0.000000
       CHANNELS 3 Yrotation Xrotation Zrotation
       JOINT RightElbow
       {
        OFFSET 0.000000 -29.696600 0.000000
        CHANNELS 3 Yrotation Xrotation Zrotation
        JOINT RightWrist
        {
         OFFSET 0.000000 -24.004700 0.000000
         CHANNELS 3 Yrotation Xrotation Zrotation
         End Site
         {
          OFFSET 0.000000 -17.728500 0.000000
         }
        }
       }
      }
     }
     JOINT LeftCollar
     {
      OFFSET 2.921100 9.558500 0.000000
      CHANNELS 3 Yrotation Xrotation Zrotation
      JOINT LeftShoulder
      {
       OFFSET 13.519700 0.000000 0.000000
       CHANNELS 3 Yrotation Xrotation Zrotation
       JOINT LeftElbow
       {
        OFFSET 0.000000 -29.696600 0.000000
        CHANNELS 3 Yrotation Xrotation Zrotation
        JOINT LeftWrist
        {
         OFFSET 0.000000 -24.004700 0.000000
         CHANNELS 3 Yrotation Xrotation Zrotation
         End Site
         {
          OFFSET 0.000000 -17.728500 0.000000
         }
        }
       }
      }
     }
    }
   }
  }
 }
 JOINT RightHip
 {
  OFFSET -7.771700 -0.012900 -0.001300
  CHANNELS 3 Yrotation Xrotation Zrotation
  JOINT RightKnee
  {
   OFFSET 0.000000 -40.869800 0.001200
   CHANNELS 3 Yrotation Xrotation Zrotation
   JOINT RightAnkle
   {
    OFFSET 0.000000 -39.717900 0.002100
    CHANNELS 3 Yrotation Xrotation Zrotation
    JOINT RightToe
    {
     OFFSET 0.000000 -4.965400 11.033500
     CHANNELS 3 Yrotation Xrotation Zrotation
     End Site
     {
      OFFSET 0.000000 -1.423100 5.872300
     }
    }
   }
  }
 }
 JOINT LeftHip
 {
  OFFSET 7.771700 -0.012900 -0.001300
  CHANNELS 3 Yrotation Xrotation Zrotation
  JOINT LeftKnee
  {
   OFFSET 0.000000 -40.869800 0.001200
   CHANNELS 3 Yrotation Xrotation Zrotation
   JOINT LeftAnkle
   {
    OFFSET 0.000000 -39.717900 0.002100
    CHANNELS 3 Yrotation Xrotation Zrotation
    JOINT LeftToe
    {
     OFFSET 0.000000 -4.965400 11.033500
     CHANNELS 3 Yrotation Xrotation Zrotation
     End Site
     {
      OFFSET 0.000000 -1.423100 5.872300
     }
    }
   }
  }
 }
}
MOTION
Frames: 15
Frame Time: 0.008333
-14.653867 43.683621 25.257339 176.583028 -22.322017 -0.142897 -0.288119 17.037648 2.675905 -0.085259 1.836307 0.333141 -0.138910 3.060153 0.553934 -0.384112 15.065289 2.709642 -0.301799 13.106400 -4.222781 0.638236 -11.896556 -4.410305 10.385109 0.984145 -4.204133 -7.166700 -5.414344 -4.253188 -165.938384 -81.115401 -179.223931 -1.012511 5.970505 -25.707005 -15.596533 -2.725753 -7.317622 13.833269 -3.544752 4.196306 161.516921 -71.899289 179.295070 14.738897 14.861823 30.862572 -4.074914 -68.339461 8.566845 -159.970197 67.546488 -157.428593 -9.243555 -24.360806 6.046217 0.219017 -0.736899 0.123165 5.070417 -52.321129 -0.888723 -178.588192 56.792374 -179.563859 -4.954848 -42.470849 4.622944 0.014307 0.110933 -0.067392
-14.657479 43.685544 25.253056 176.595483 -22.342726 -0.134250 -0.306664 17.061757 2.661493 -0.084835 1.837136 0.333558 -0.138481 3.058392 0.552982 -0.382297 15.069664 2.711804 -0.298416 13.104121 -4.222513 0.653367 -11.895980 -4.409648 10.384706 0.979329 -4.205198 -7.170903 -5.408008 -4.250884 -165.733247 -81.141154 -179.435587 -0.997843 5.954171 -25.704644 -15.602139 -2.733866 -7.316695 13.826176 -3.554068 4.196892 161.498749 -71.924969 179.327590 14.741065 14.857411 30.873327 -4.028332 -68.316509 8.515155 -160.023343 67.546469 -157.480365 -9.276939 -24.371123 6.070732 0.209070 -0.734301 0.111011 5.061355 -52.293004 -0.911705 -178.601101 56.795763 -179.578303 -4.953272 -42.475506 4.622477 0.015219 0.109570 -0.060110
-14.658672 43.686613 25.250059 176.602080 -22.353306 -0.136310 -0.321589 17.074771 2.655774 -0.090604 1.840832 0.330506 -0.131548 3.057627 0.555408 -0.376156 15.069667 2.714781 -0.297245 13.102823 -4.222139 0.654468 -11.898631 -4.408734 10.386698 0.975201 -4.204718 -7.175483 -5.395726 -4.251107 -165.587899 -81.153745 -179.584532 -0.994416 5.943980 -25.707934 -15.611112 -2.740099 -7.309326 13.824745 -3.561244 4.185589 161.530171 -71.954778 179.318320 14.736255 14.866284 30.888999 -4.017753 -68.302572 8.502974 -160.071468 67.550506 -157.523868 -9.300026 -24.377282 6.081690 0.210499 -0.732574 0.104718 5.045451 -52.278946 -0.919484 -178.609659 56.795434 -179.582473 -4.941582 -42.481396 4.610520 0.013247 0.107756 -0.050587
-14.658651 43.687170 25.247341 176.601117 -22.360127 -0.140237 -0.332045 17.087007 2.650574 -0.083256 1.838890 0.334188 -0.132579 3.059191 0.554733 -0.370758 15.069994 2.715789 -0.296682 13.099810 -4.220601 0.648337 -11.898582 -4.405354 10.381931 0.966092 -4.197782 -7.184531 -5.377834 -4.259063 -165.528869 -81.145521 -179.630828 -1.024628 5.960491 -25.728603 -15.617921 -2.747378 -7.301899 13.814315 -3.568714 4.176810 161.677521 -71.995594 179.218905 14.748355 14.861871 30.878061 -4.021342 -68.293910 8.509710 -160.117232 67.555030 -157.565227 -9.316098 -24.378379 6.084534 0.213579 -0.734393 0.102727 5.037013 -52.269786 -0.920559 -178.619200 56.792950 -179.584752 -4.931402 -42.486755 4.596965 0.009888 0.102885 -0.032872
-14.657199 43.687277 25.244983 176.595942 -22.363448 -0.148360 -0.328430 17.092744 2.658931 -0.081218 1.838029 0.334392 -0.132245 3.059323 0.554691 -0.370207 15.072272 2.713704 -0.297073 13.097860 -4.218412 0.638344 -11.896195 -4.401719 10.367802 0.956446 -4.185536 -7.178214 -5.367887 -4.271898 -165.341899 -81.163435 -179.810596 -1.037538 5.985523 -25.754468 -15.622577 -2.752034 -7.299091 13.798341 -3.574179 4.178901 161.764242 -72.016783 179.167938 14.759749 14.855068 30.868819 -4.028769 -68.285297 8.529444 -160.126388 67.559739 -157.568138 -9.332329 -24.386283 6.094934 0.216902 -0.726616 0.097421 5.013605 -52.265373 -0.906953 -178.655829 56.788635 -179.612627 -4.928405 -42.493445 4.574124 0.008263 0.099994 -0.022998
-14.655831 43.686918 25.243041 176.592195 -22.363203 -0.153968 -0.326512 17.094656 2.664223 -0.079505 1.836892 0.335109 -0.132124 3.059396 0.554701 -0.371932 15.073586 2.710418 -0.309168 13.102967 -4.217347 0.640614 -11.897344 -4.401400 10.367205 0.951985 -4.179110 -7.177438 -5.364064 -4.277161 -165.246931 -81.204576 -179.915307 -1.027246 5.963241 -25.746661 -15.633379 -2.758252 -7.296175 13.790520 -3.575646 4.185597 161.823618 -72.031246 179.141932 14.741170 14.855154 30.872539 -4.038503 -68.284542 8.546819 -160.136584 67.559865 -157.575493 -9.331869 -24.384957 6.095260 0.201615 -0.729517 0.096127 4.985519 -52.266197 -0.887656 -178.664215 56.783638 -179.623001 -4.924509 -42.495165 4.563627 0.010254 0.095430 -0.023498
-14.655713 43.686042 25.241772 176.586613 -22.358192 -0.149470 -0.326161 17.091460 2.658411 -0.078452 1.837112 0.336452 -0.131861 3.058932 0.553969 -0.374454 15.075754 2.707595 -0.307739 13.102339 -4.215646 0.635002 -11.893572 -4.399719 10.367446 0.945497 -4.175496 -7.192681 -5.358588 -4.280690 -165.225274 -81.210383 -179.927489 -1.021297 5.969395 -25.737310 -15.632337 -2.762498 -7.292202 13.784151 -3.574498 4.193308 161.830952 -72.033597 179.150086 14.694106 14.875360 30.870801 -4.030099 -68.289913 8.542272 -160.139231 67.561245 -157.572727 -9.348144 -24.384636 6.096835 0.214816 -0.727818 0.095731 4.988380 -52.270748 -0.888951 -178.662501 56.780385 -179.622345 -4.923987 -42.494348 4.563809 0.011080 0.091120 -0.022371
-14.653346 43.684545 25.241803 176.574950 -22.346507 -0.155071 -0.314558 17.080551 2.666898 -0.080664 1.838819 0.335219 -0.132150 3.059864 0.553688 -0.374529 15.075437 2.707132 -0.307169 13.103263 -4.214683 0.626626 -11.883060 -4.397554 10.367637 0.939146 -4.176110 -7.212543 -5.348506 -4.275501 -165.262559 -81.207147 -179.879592 -1.008249 5.977047 -25.717739 -15.645095 -2.770003 -7.285799 13.784757 -3.573210 4.207887 161.848833 -72.049485 179.155513 14.694075 14.873357 30.867767 -4.049643 -68.304101 8.571073 -160.110962 67.558959 -157.539474 -9.331404 -24.373979 6.081471 0.231763 -0.733416 0.101449 4.980944 -52.285182 -0.866954 -178.652943 56.774097 -179.614172 -4.919919 -42.494763 4.560409 0.011079 0.087781 -0.016753
-14.652066 43.683442 25.240704 176.562295 -22.343021 -0.152659 -0.304548 17.077582 2.667157 -0.087517 1.840848 0.334258 -0.131865 3.060109 0.553339 -0.370261 15.072995 2.707777 -0.320850 13.120471 -4.216252 0.628046 -11.879249 -4.397233 10.365612 0.935056 -4.175210 -7.228407 -5.334223 -4.275781 -165.322247 -81.194028 -179.808699 -0.994281 5.982595 -25.696419 -15.648082 -2.772228 -7.286244 13.786349 -3.573118 4.216179 161.871731 -72.068731 179.135804 14.700904 14.860033 30.868947 -4.041752 -68.308602 8.570889 -160.098703 67.556636 -157.522100 -9.315603 -24.372487 6.072005 0.238778 -0.731277 0.101520 4.982256 -52.288478 -0.856113 -178.651525 56.769186 -179.614657 -4.917529 -42.493372 4.553166 0.015288 0.085964 -0.008429
-14.651291 43.682031 25.240295 176.554096 -22.336484 -0.148996 -0.303135 17.073498 2.666012 -0.085024 1.839010 0.333122 -0.129974 3.060050 0.553391 -0.376156 15.071619 2.706665 -0.320854 13.128494 -4.217323 0.628248 -11.876058 -4.397757 10.350490 0.930674 -4.176267 -7.260346 -5.309966 -4.277458 -165.346868 -81.166148 -179.736994 -0.981991 5.979137 -25.682714 -15.644145 -2.772475 -7.288845 13.787425 -3.572839 4.220136 161.885240 -72.075171 179.114217 14.706420 14.857539 30.878016 -4.058143 -68.315903 8.584546 -160.094303 67.556056 -157.524613 -9.284750 -24.370086 6.054707 0.215069 -0.734494 0.103230 4.987937 -52.296414 -0.851778 -178.646344 56.764605 -179.611712 -4.911291 -42.488969 4.539629 0.011407 0.081266 0.002130
-14.651728 43.680738 25.239541 176.556055 -22.333341 -0.141979 -0.307713 17.070106 2.658014 -0.089187 1.840531 0.331028 -0.127064 3.057492 0.554953 -0.381544 15.072835 2.706302 -0.316540 13.131090 -4.218718 0.624816 -11.867599 -4.396841 10.342341 0.931260 -4.178573 -7.266138 -5.296948 -4.278650 -165.358204 -81.148673 -179.707303 -0.967586 5.964433 -25.677564 -15.638753 -2.773824 -7.292711 13.784185 -3.575414 4.233041 161.853612 -72.082461 179.135356 14.717190 14.870936 30.893022 -4.059899 -68.320278 8.580984 -160.085690 67.554569 -157.520697 -9.294871 -24.368781 6.055579 0.222904 -0.734308 0.104273 4.995749 -52.299377 -0.861969 -178.640031 56.762801 -179.606708 -4.910512 -42.487611 4.536009 0.010960 0.081889 0.006598
-14.650537 43.679402 25.239186 176.552521 -22.329921 -0.142968 -0.309171 17.067589 2.657694 -0.086756 1.841124 0.330589 -0.130809 3.057144 0.555738 -0.377487 15.072288 2.706694 -0.323367 13.141601 -4.217385 0.617247 -11.834544 -4.395878 10.328649 0.933738 -4.181139 -7.263684 -5.288464 -4.278657 -165.436004 -81.129936 -179.629975 -0.967057 5.951042 -25.666513 -15.645986 -2.776077 -7.295489 13.787167 -3.572807 4.247973 161.786904 -72.101278 179.176319 14.718373 14.853941 30.907982 -4.087802 -68.323274 8.603889 -160.076870 67.553905 -157.514023 -9.286207 -24.367514 6.045376 0.216351 -0.735253 0.103144 4.993277 -52.303103 -0.851498 -178.626321 56.759498 -179.594900 -4.910557 -42.489627 4.532628 0.010387 0.083083 0.011620
-14.650965 43.678369 25.238158 176.551559 -22.331776 -0.135287 -0.316163 17.073842 2.643161 -0.083831 1.839043 0.333159 -0.133639 3.059251 0.552908 -0.376909 15.072368 2.705639 -0.324626 13.150564 -4.215386 0.620208 -11.830573 -4.394274 10.324485 0.931300 -4.179847 -7.268225 -5.283176 -4.280607 -165.533188 -81.109339 -179.532948 -0.975851 5.944356 -25.659765 -15.665931 -2.783303 -7.288373 13.799182 -3.568366 4.262280 161.752021 -72.103191 179.212251 14.724965 14.860050 30.878542 -4.100508 -68.321506 8.606464 -160.053767 67.548512 -157.492662 -9.298049 -24.370146 6.045570 0.203960 -0.734702 0.098170 5.006229 -52.298362 -0.851860 -178.605402 56.758931 -179.579892 -4.923799 -42.491455 4.542938 0.011989 0.084532 0.019182
-14.648663 43.677200 25.237896 176.554122 -22.331328 -0.145836 -0.319399 17.075649 2.649987 -0.084373 1.839053 0.333293 -0.134513 3.059500 0.553195 -0.383478 15.074944 2.701242 -0.324512 13.172813 -4.216527 0.629142 -11.852026 -4.393394 10.331174 0.927386 -4.179908 -7.278989 -5.277372 -4.285112 -165.494845 -81.097716 -179.558676 -0.967421 5.936151 -25.665140 -15.660754 -2.789020 -7.284921 13.779771 -3.562467 4.287008 161.708063 -72.106105 179.263521 14.724527 14.845593 30.871105 -4.153508 -68.321416 8.649005 -160.047003 67.545203 -157.489777 -9.270046 -24.364980 6.030346 0.218337 -0.741399 0.097939 4.991815 -52.300275 -0.826430 -178.594267 56.754936 -179.570262 -4.929341 -42.496000 4.542366 0.009981 0.088630 0.023311
-14.648028 43.676326 25.237117 176.561003 -22.335128 -0.148461 -0.325068 17.081425 2.646921 -0.084543 1.839152 0.333060 -0.134873 3.059819 0.552712 -0.382915 15.073295 2.703718 -0.329333 13.186617 -4.218952 0.630038 -11.840869 -4.393230 10.326122 0.926650 -4.179879 -7.284703 -5.273389 -4.288232 -165.493747 -81.085200 -179.557498 -0.963911 5.939441 -25.666364 -15.667672 -2.791096 -7.283504 13.780398 -3.559794 4.292768 161.706592 -72.119758 179.246537 14.727604 14.824013 30.878462 -4.173003 -68.318084 8.657148 -160.042035 67.541642 -157.480142 -9.282933 -24.362777 6.030106 0.235905 -0.740301 0.097925 4.984871 -52.296315 -0.815160 -178.586776 56.753323 -179.567032 -4.940157 -42.498379 4.549885 0.008252 0.091612 0.022577
